<svg width="16" height="16" viewBox="0 0 16 16" fill="none" xmlns="http://www.w3.org/2000/svg">
<g id="icon-wrapper" clip-path="url(#clip0_3939_539)">
<path id="Union" d="M0.292786 0.292105C0.480314 0.104634 0.734622 -0.000681838 0.999786 -0.000681838C1.26495 -0.000681838 1.51926 0.104634 1.70679 0.292105L7.99979 6.5851L14.2928 0.292105C14.385 0.196594 14.4954 0.120412 14.6174 0.0680032C14.7394 0.0155942 14.8706 -0.011992 15.0034 -0.0131458C15.1362 -0.0142997 15.2678 0.0110021 15.3907 0.0612829C15.5136 0.111564 15.6253 0.185817 15.7192 0.27971C15.8131 0.373602 15.8873 0.485254 15.9376 0.608151C15.9879 0.731047 16.0132 0.862727 16.012 0.995506C16.0109 1.12829 15.9833 1.25951 15.9309 1.38151C15.8785 1.50351 15.8023 1.61386 15.7068 1.7061L9.41379 7.9991L15.7068 14.2921C15.8889 14.4807 15.9897 14.7333 15.9875 14.9955C15.9852 15.2577 15.88 15.5085 15.6946 15.6939C15.5092 15.8793 15.2584 15.9845 14.9962 15.9868C14.734 15.9891 14.4814 15.8883 14.2928 15.7061L7.99979 9.4131L1.70679 15.7061C1.51818 15.8883 1.26558 15.9891 1.00339 15.9868C0.741189 15.9845 0.490376 15.8793 0.304968 15.6939C0.11956 15.5085 0.0143908 15.2577 0.0121124 14.9955C0.00983399 14.7333 0.110628 14.4807 0.292786 14.2921L6.58579 7.9991L0.292786 1.7061C0.105315 1.51858 0 1.26427 0 0.999105C0 0.73394 0.105315 0.479632 0.292786 0.292105Z" fill="white"/>
</g>
<defs>
<clipPath id="clip0_3939_539">
<rect width="16" height="16" fill="white"/>
</clipPath>
</defs>
</svg>
